<?xml version="1.0" standalone="no"?>
<!DOCTYPE svg PUBLIC "-//W3C//DTD SVG 20010904//EN"
 "http://www.w3.org/TR/2001/REC-SVG-20010904/DTD/svg10.dtd">
<svg version="1.0" xmlns="http://www.w3.org/2000/svg"
 width="512.000000pt" height="512.000000pt" viewBox="0 0 512.000000 512.000000"
 preserveAspectRatio="xMidYMid meet">
<metadata>
Created by potrace 1.11, written by Peter Selinger 2001-2013
</metadata>
<g transform="translate(0.000000,512.000000) scale(0.100000,-0.100000)"
fill="#000000" stroke="none">
<path d="M2295 4784 c-309 -41 -577 -129 -850 -281 -96 -54 -265 -171 -265
-184 0 -4 27 -40 61 -81 33 -40 66 -80 72 -88 41 -53 176 -219 195 -241 12
-14 28 -34 35 -43 12 -17 18 -14 78 26 163 112 395 201 639 244 108 19 398 27
500 13 36 -5 83 -12 105 -15 188 -25 430 -114 604 -222 l74 -46 24 30 c46 54
58 69 138 169 44 55 82 102 85 105 3 3 33 40 68 83 52 64 61 81 51 93 -16 19
-204 144 -217 144 -6 0 -12 3 -14 8 -11 24 -315 160 -446 197 -46 14 -87 27
-91 29 -4 3 -23 8 -42 11 -19 3 -50 10 -69 15 -160 42 -538 60 -735 34z"/>
<path d="M4024 4118 c-33 -40 -67 -82 -76 -93 -9 -11 -69 -84 -133 -163 l-116
-143 67 -77 c204 -233 332 -520 379 -852 13 -92 14 -387 1 -440 -3 -13 -8 -42
-11 -65 -18 -120 -73 -289 -142 -434 l-45 -93 -31 30 c-37 35 -101 95 -208
196 -41 39 -145 136 -229 216 -85 80 -190 179 -234 220 -214 201 -209 194
-261 325 -26 66 -56 138 -65 160 -10 22 -37 87 -60 145 -23 58 -48 119 -55
135 -8 17 -39 93 -70 170 -31 77 -60 143 -63 147 -4 4 -7 -303 -6 -681 l0
-688 422 -421 c232 -232 422 -426 422 -432 0 -5 -33 -31 -72 -58 -199 -134
-401 -210 -653 -247 -88 -13 -430 -15 -450 -3 -6 3 -32 9 -60 12 -116 16 -273
66 -404 129 -98 47 -261 152 -261 167 0 6 190 200 422 432 l421 421 1 668 c1
367 -2 678 -5 691 l-5 23 -7 -25 c-3 -14 -85 -217 -181 -450 l-175 -425 -74
-70 c-118 -112 -339 -320 -377 -355 -19 -18 -98 -91 -174 -164 -77 -72 -149
-140 -161 -151 -12 -11 -44 -42 -72 -68 l-51 -49 -45 94 c-70 144 -122 308
-152 478 -13 77 -13 357 0 458 28 210 102 432 198 601 55 95 174 258 206 281
12 8 21 19 21 24 0 8 -54 77 -283 358 l-95 118 -44 -43 c-272 -273 -477 -626
-582 -1002 -14 -49 -27 -103 -30 -120 -3 -16 -13 -73 -22 -125 -18 -102 -25
-412 -12 -550 35 -371 191 -778 412 -1079 240 -329 551 -580 911 -739 155 -68
375 -135 515 -157 25 -4 54 -9 65 -11 51 -11 193 -19 325 -19 136 0 325 11
339 20 4 2 27 6 51 10 129 18 357 88 513 156 266 117 472 261 692 483 414 417
637 955 639 1541 1 207 -5 288 -34 435 -29 149 -28 146 -56 240 -99 326 -278
634 -515 884 -50 53 -95 96 -99 96 -4 0 -34 -33 -66 -72z"/>
</g>
</svg>
